<?xml version="1.0" encoding="UTF-8" standalone="no"?>
<!DOCTYPE svg PUBLIC "-//W3C//DTD SVG 1.1//EN"
 "http://www.w3.org/Graphics/SVG/1.1/DTD/svg11.dtd">
<!-- Generated by graphviz version 2.43.0 (0)
 -->
<!-- Title: happy_path Pages: 1 -->
<svg width="474pt" height="1247pt"
 viewBox="0.00 0.00 474.00 1246.76" xmlns="http://www.w3.org/2000/svg" xmlns:xlink="http://www.w3.org/1999/xlink">
<g id="graph0" class="graph" transform="scale(1 1) rotate(0) translate(4 1242.76)">
<title>happy_path</title>
<polygon fill="white" stroke="transparent" points="-4,4 -4,-1242.76 470,-1242.76 470,4 -4,4"/>
<text text-anchor="start" x="67" y="-1222.96" font-family="Helvetica,sans-Serif" font-weight="bold" font-size="16.00">XMR&#45;WOW Atomic Swap: Happy Path</text>
<text text-anchor="start" x="102.5" y="-1211.76" font-family="Helvetica,sans-Serif" font-size="10.00">Alice swaps XMR for WOW, Bob swaps WOW for XMR</text>
<g id="clust1" class="cluster">
<title>cluster_setup</title>
<polygon fill="none" stroke="#999999" stroke-dasharray="5,2" points="22,-829.76 22,-1193.26 212,-1193.26 212,-829.76 22,-829.76"/>
<text text-anchor="middle" x="117" y="-1179.66" font-family="Helvetica,sans-Serif" font-size="12.00">Setup Phase</text>
</g>
<g id="clust2" class="cluster">
<title>cluster_lock</title>
<polygon fill="none" stroke="#999999" stroke-dasharray="5,2" points="12,-472.76 12,-810.76 222,-810.76 222,-472.76 12,-472.76"/>
<text text-anchor="middle" x="117" y="-797.16" font-family="Helvetica,sans-Serif" font-size="12.00">Lock Phase (on&#45;chain)</text>
</g>
<g id="clust3" class="cluster">
<title>cluster_claim</title>
<polygon fill="none" stroke="#999999" stroke-dasharray="5,2" points="8,-8 8,-453.76 226,-453.76 226,-8 8,-8"/>
<text text-anchor="middle" x="117" y="-440.16" font-family="Helvetica,sans-Serif" font-size="12.00">Claim Phase (atomic)</text>
</g>
<g id="clust4" class="cluster">
<title>cluster_legend</title>
<polygon fill="none" stroke="#999999" stroke-dasharray="5,2" points="220,-1087.76 220,-1196.76 458,-1196.76 458,-1087.76 220,-1087.76"/>
<text text-anchor="middle" x="339" y="-1184.76" font-family="Helvetica,sans-Serif" font-size="10.00">Legend</text>
</g>
<!-- step1 -->
<g id="node1" class="node">
<title>step1</title>
<path fill="#d5e8d4" stroke="#2980b9" d="M166.5,-1164.26C166.5,-1164.26 41.5,-1164.26 41.5,-1164.26 35.5,-1164.26 29.5,-1158.26 29.5,-1152.26 29.5,-1152.26 29.5,-1113.26 29.5,-1113.26 29.5,-1107.26 35.5,-1101.26 41.5,-1101.26 41.5,-1101.26 166.5,-1101.26 166.5,-1101.26 172.5,-1101.26 178.5,-1107.26 178.5,-1113.26 178.5,-1113.26 178.5,-1152.26 178.5,-1152.26 178.5,-1158.26 172.5,-1164.26 166.5,-1164.26"/>
<text text-anchor="start" x="52.5" y="-1152.46" font-family="Helvetica,sans-Serif" font-weight="bold" font-size="11.00">Step 1: Alice Init</text>
<text text-anchor="start" x="37.5" y="-1141.46" font-family="Helvetica,sans-Serif" font-size="11.00">Generate key (k_a, K_a)</text>
<text text-anchor="start" x="46" y="-1130.46" font-family="Helvetica,sans-Serif" font-size="11.00">Record chain heights</text>
<text text-anchor="start" x="37.5" y="-1119.46" font-family="Helvetica,sans-Serif" font-size="11.00">Compute refund heights</text>
<text text-anchor="start" x="45" y="-1108.46" font-family="Helvetica,sans-Serif" font-size="11.00" fill="#888888">State: KeyGeneration</text>
</g>
<!-- step2 -->
<g id="node2" class="node">
<title>step2</title>
<path fill="#dae8fc" stroke="#2980b9" d="M173.5,-1029.76C173.5,-1029.76 46.5,-1029.76 46.5,-1029.76 40.5,-1029.76 34.5,-1023.76 34.5,-1017.76 34.5,-1017.76 34.5,-978.76 34.5,-978.76 34.5,-972.76 40.5,-966.76 46.5,-966.76 46.5,-966.76 173.5,-966.76 173.5,-966.76 179.5,-966.76 185.5,-972.76 185.5,-978.76 185.5,-978.76 185.5,-1017.76 185.5,-1017.76 185.5,-1023.76 179.5,-1029.76 173.5,-1029.76"/>
<text text-anchor="start" x="42.5" y="-1017.96" font-family="Helvetica,sans-Serif" font-weight="bold" font-size="11.00">Step 2: Bob Response</text>
<text text-anchor="start" x="43.5" y="-1006.96" font-family="Helvetica,sans-Serif" font-size="11.00">Generate key (k_b, K_b)</text>
<text text-anchor="start" x="46" y="-995.96" font-family="Helvetica,sans-Serif" font-size="11.00">Verify Alice DLEQ proof</text>
<text text-anchor="start" x="48" y="-984.96" font-family="Helvetica,sans-Serif" font-size="11.00">Derive joint addresses</text>
<text text-anchor="start" x="57" y="-973.96" font-family="Helvetica,sans-Serif" font-size="11.00" fill="#888888">State: JointAddress</text>
</g>
<!-- step1&#45;&gt;step2 -->
<g id="edge1" class="edge">
<title>step1&#45;&gt;step2</title>
<path fill="none" stroke="#27ae60" d="M105.39,-1101.03C106.21,-1082.88 107.26,-1059.69 108.15,-1040.03"/>
<polygon fill="#27ae60" stroke="#27ae60" points="111.66,-1039.97 108.62,-1029.82 104.67,-1039.66 111.66,-1039.97"/>
<text text-anchor="middle" x="159" y="-1070.56" font-family="Helvetica,sans-Serif" font-size="9.00" fill="#27ae60"> &#160;Init msg:</text>
<text text-anchor="middle" x="159" y="-1060.56" font-family="Helvetica,sans-Serif" font-size="9.00" fill="#27ae60"> &#160;K_a, DLEQ, amounts,</text>
<text text-anchor="middle" x="159" y="-1050.56" font-family="Helvetica,sans-Serif" font-size="9.00" fill="#27ae60"> &#160;refund heights &#160;</text>
</g>
<!-- step3 -->
<g id="node3" class="node">
<title>step3</title>
<path fill="#d5e8d4" stroke="#2980b9" d="M192,-900.76C192,-900.76 42,-900.76 42,-900.76 36,-900.76 30,-894.76 30,-888.76 30,-888.76 30,-849.76 30,-849.76 30,-843.76 36,-837.76 42,-837.76 42,-837.76 192,-837.76 192,-837.76 198,-837.76 204,-843.76 204,-849.76 204,-849.76 204,-888.76 204,-888.76 204,-894.76 198,-900.76 192,-900.76"/>
<text text-anchor="start" x="55.5" y="-888.96" font-family="Helvetica,sans-Serif" font-weight="bold" font-size="11.00">Step 3: Alice Import</text>
<text text-anchor="start" x="55.5" y="-877.96" font-family="Helvetica,sans-Serif" font-size="11.00">Verify Bob DLEQ proof</text>
<text text-anchor="start" x="38" y="-866.96" font-family="Helvetica,sans-Serif" font-size="11.00">Derive same joint addresses</text>
<text text-anchor="start" x="41" y="-855.96" font-family="Helvetica,sans-Serif" font-size="11.00">Swap ID = Hash(K_a || K_b)</text>
<text text-anchor="start" x="64" y="-844.96" font-family="Helvetica,sans-Serif" font-size="11.00" fill="#888888">State: JointAddress</text>
</g>
<!-- step2&#45;&gt;step3 -->
<g id="edge2" class="edge">
<title>step2&#45;&gt;step3</title>
<path fill="none" stroke="#2980b9" d="M111.69,-966.52C112.61,-949.95 113.75,-929.28 114.74,-911.35"/>
<polygon fill="#2980b9" stroke="#2980b9" points="118.24,-911.34 115.3,-901.16 111.25,-910.95 118.24,-911.34"/>
<text text-anchor="middle" x="159" y="-941.56" font-family="Helvetica,sans-Serif" font-size="9.00" fill="#2980b9"> &#160;Response msg:</text>
<text text-anchor="middle" x="159" y="-931.56" font-family="Helvetica,sans-Serif" font-size="9.00" fill="#2980b9"> &#160;K_b, DLEQ,</text>
<text text-anchor="middle" x="159" y="-921.56" font-family="Helvetica,sans-Serif" font-size="9.00" fill="#2980b9"> &#160;bob_refund_addr &#160;</text>
</g>
<!-- step4 -->
<g id="node4" class="node">
<title>step4</title>
<path fill="#dae8fc" stroke="#2980b9" d="M189.5,-781.76C189.5,-781.76 44.5,-781.76 44.5,-781.76 38.5,-781.76 32.5,-775.76 32.5,-769.76 32.5,-769.76 32.5,-730.76 32.5,-730.76 32.5,-724.76 38.5,-718.76 44.5,-718.76 44.5,-718.76 189.5,-718.76 189.5,-718.76 195.5,-718.76 201.5,-724.76 201.5,-730.76 201.5,-730.76 201.5,-769.76 201.5,-769.76 201.5,-775.76 195.5,-781.76 189.5,-781.76"/>
<text text-anchor="start" x="43" y="-769.96" font-family="Helvetica,sans-Serif" font-weight="bold" font-size="11.00">Step 4: Bob Locks WOW</text>
<text text-anchor="start" x="40.5" y="-758.96" font-family="Helvetica,sans-Serif" font-size="11.00">Send WOW to joint address</text>
<text text-anchor="start" x="54.5" y="-747.96" font-family="Helvetica,sans-Serif" font-size="11.00">Create adaptor pre&#45;sig</text>
<text text-anchor="start" x="69.5" y="-736.96" font-family="Helvetica,sans-Serif" font-size="11.00">(adapted by K_a)</text>
<text text-anchor="start" x="66" y="-725.96" font-family="Helvetica,sans-Serif" font-size="11.00" fill="#888888">State: WowLocked</text>
</g>
<!-- step3&#45;&gt;step4 -->
<g id="edge8" class="edge">
<title>step3&#45;&gt;step4</title>
<path fill="none" stroke="#555555" d="M117,-837.52C117,-823.55 117,-806.82 117,-791.84"/>
<polygon fill="#555555" stroke="#555555" points="120.5,-791.8 117,-781.8 113.5,-791.8 120.5,-791.8"/>
</g>
<!-- step5 -->
<g id="node5" class="node">
<title>step5</title>
<path fill="#d5e8d4" stroke="#2980b9" d="M201.5,-662.76C201.5,-662.76 32.5,-662.76 32.5,-662.76 26.5,-662.76 20.5,-656.76 20.5,-650.76 20.5,-650.76 20.5,-600.76 20.5,-600.76 20.5,-594.76 26.5,-588.76 32.5,-588.76 32.5,-588.76 201.5,-588.76 201.5,-588.76 207.5,-588.76 213.5,-594.76 213.5,-600.76 213.5,-600.76 213.5,-650.76 213.5,-650.76 213.5,-656.76 207.5,-662.76 201.5,-662.76"/>
<text text-anchor="start" x="42.5" y="-650.96" font-family="Helvetica,sans-Serif" font-weight="bold" font-size="11.00">Step 5: Alice Locks XMR</text>
<text text-anchor="start" x="28.5" y="-639.96" font-family="Helvetica,sans-Serif" font-size="11.00">Verify Bob&#39;s WOW lock on&#45;chain</text>
<text text-anchor="start" x="44" y="-628.96" font-family="Helvetica,sans-Serif" font-size="11.00">Send XMR to joint address</text>
<text text-anchor="start" x="54.5" y="-617.96" font-family="Helvetica,sans-Serif" font-size="11.00">Create adaptor pre&#45;sig</text>
<text text-anchor="start" x="69.5" y="-606.96" font-family="Helvetica,sans-Serif" font-size="11.00">(adapted by K_b)</text>
<text text-anchor="start" x="68" y="-595.96" font-family="Helvetica,sans-Serif" font-size="11.00" fill="#888888">State: XmrLocked</text>
</g>
<!-- step4&#45;&gt;step5 -->
<g id="edge3" class="edge">
<title>step4&#45;&gt;step5</title>
<path fill="none" stroke="#2980b9" d="M117,-718.66C117,-704.96 117,-688.5 117,-673.32"/>
<polygon fill="#2980b9" stroke="#2980b9" points="120.5,-673.06 117,-663.06 113.5,-673.06 120.5,-673.06"/>
<text text-anchor="middle" x="162.5" y="-693.56" font-family="Helvetica,sans-Serif" font-size="9.00" fill="#2980b9"> &#160;Pre&#45;sig msg:</text>
<text text-anchor="middle" x="162.5" y="-683.56" font-family="Helvetica,sans-Serif" font-size="9.00" fill="#2980b9"> &#160;Bob&#39;s adaptor sig &#160;</text>
</g>
<!-- step6 -->
<g id="node6" class="node">
<title>step6</title>
<path fill="#e8f4fd" stroke="#2980b9" d="M200.5,-532.76C200.5,-532.76 33.5,-532.76 33.5,-532.76 27.5,-532.76 21.5,-526.76 21.5,-520.76 21.5,-520.76 21.5,-492.76 21.5,-492.76 21.5,-486.76 27.5,-480.76 33.5,-480.76 33.5,-480.76 200.5,-480.76 200.5,-480.76 206.5,-480.76 212.5,-486.76 212.5,-492.76 212.5,-492.76 212.5,-520.76 212.5,-520.76 212.5,-526.76 206.5,-532.76 200.5,-532.76"/>
<text text-anchor="start" x="35.5" y="-520.96" font-family="Helvetica,sans-Serif" font-weight="bold" font-size="11.00">Step 6: Exchange Pre&#45;Sigs</text>
<text text-anchor="start" x="49" y="-509.96" font-family="Helvetica,sans-Serif" font-size="11.00">Both verify counterparty</text>
<text text-anchor="start" x="53.5" y="-498.96" font-family="Helvetica,sans-Serif" font-size="11.00">adaptor pre&#45;signatures</text>
<text text-anchor="start" x="29.5" y="-487.96" font-family="Helvetica,sans-Serif" font-size="11.00" fill="#888888">Both store counterparty pre&#45;sig</text>
</g>
<!-- step5&#45;&gt;step6 -->
<g id="edge4" class="edge">
<title>step5&#45;&gt;step6</title>
<path fill="none" stroke="#27ae60" d="M117,-588.7C117,-574.11 117,-557.33 117,-542.84"/>
<polygon fill="#27ae60" stroke="#27ae60" points="120.5,-542.76 117,-532.76 113.5,-542.76 120.5,-542.76"/>
<text text-anchor="middle" x="164" y="-563.56" font-family="Helvetica,sans-Serif" font-size="9.00" fill="#27ae60"> &#160;Pre&#45;sig msg:</text>
<text text-anchor="middle" x="164" y="-553.56" font-family="Helvetica,sans-Serif" font-size="9.00" fill="#27ae60"> &#160;Alice&#39;s adaptor sig &#160;</text>
</g>
<!-- step7 -->
<g id="node7" class="node">
<title>step7</title>
<path fill="#dae8fc" stroke="#2980b9" d="M186.5,-424.76C186.5,-424.76 47.5,-424.76 47.5,-424.76 41.5,-424.76 35.5,-418.76 35.5,-412.76 35.5,-412.76 35.5,-384.76 35.5,-384.76 35.5,-378.76 41.5,-372.76 47.5,-372.76 47.5,-372.76 186.5,-372.76 186.5,-372.76 192.5,-372.76 198.5,-378.76 198.5,-384.76 198.5,-384.76 198.5,-412.76 198.5,-412.76 198.5,-418.76 192.5,-424.76 186.5,-424.76"/>
<text text-anchor="start" x="43.5" y="-412.96" font-family="Helvetica,sans-Serif" font-weight="bold" font-size="11.00">Step 7: Bob Claim Proof</text>
<text text-anchor="start" x="50.5" y="-401.96" font-family="Helvetica,sans-Serif" font-size="11.00">Complete Alice&#39;s pre&#45;sig</text>
<text text-anchor="start" x="65.5" y="-390.96" font-family="Helvetica,sans-Serif" font-size="11.00">with his secret k_b</text>
<text text-anchor="start" x="83.5" y="-379.96" font-family="Helvetica,sans-Serif" font-size="11.00">s = s&#39; + k_b</text>
</g>
<!-- step6&#45;&gt;step7 -->
<g id="edge9" class="edge">
<title>step6&#45;&gt;step7</title>
<path fill="none" stroke="#555555" d="M117,-480.64C117,-467.14 117,-450.27 117,-435.43"/>
<polygon fill="#555555" stroke="#555555" points="120.5,-435.07 117,-425.07 113.5,-435.07 120.5,-435.07"/>
</g>
<!-- step8 -->
<g id="node8" class="node">
<title>step8</title>
<path fill="#d5e8d4" stroke="#2980b9" d="M206.5,-316.76C206.5,-316.76 27.5,-316.76 27.5,-316.76 21.5,-316.76 15.5,-310.76 15.5,-304.76 15.5,-304.76 15.5,-254.76 15.5,-254.76 15.5,-248.76 21.5,-242.76 27.5,-242.76 27.5,-242.76 206.5,-242.76 206.5,-242.76 212.5,-242.76 218.5,-248.76 218.5,-254.76 218.5,-254.76 218.5,-304.76 218.5,-304.76 218.5,-310.76 212.5,-316.76 206.5,-316.76"/>
<text text-anchor="start" x="37" y="-304.96" font-family="Helvetica,sans-Serif" font-weight="bold" font-size="11.00">Step 8: Alice Claims WOW</text>
<text text-anchor="start" x="64.5" y="-293.96" font-family="Helvetica,sans-Serif" font-size="11.00">Extract k_b = s &#45; s&#39;</text>
<text text-anchor="start" x="23.5" y="-282.96" font-family="Helvetica,sans-Serif" font-size="11.00">Compute k_combined = k_a + k_b</text>
<text text-anchor="start" x="44.5" y="-271.96" font-family="Helvetica,sans-Serif" font-size="11.00">Sweep WOW to her wallet</text>
<text text-anchor="start" x="28.5" y="-260.96" font-family="Helvetica,sans-Serif" font-size="11.00">Complete Bob&#39;s pre&#45;sig with k_a</text>
<text text-anchor="start" x="72" y="-249.96" font-family="Helvetica,sans-Serif" font-size="11.00" fill="#888888">State: Complete</text>
</g>
<!-- step7&#45;&gt;step8 -->
<g id="edge5" class="edge">
<title>step7&#45;&gt;step8</title>
<path fill="none" stroke="#2980b9" d="M117,-372.66C117,-359.33 117,-342.52 117,-326.94"/>
<polygon fill="#2980b9" stroke="#2980b9" points="120.5,-326.92 117,-316.92 113.5,-326.92 120.5,-326.92"/>
<text text-anchor="middle" x="155" y="-347.56" font-family="Helvetica,sans-Serif" font-size="9.00" fill="#2980b9"> &#160;Claim proof:</text>
<text text-anchor="middle" x="155" y="-337.56" font-family="Helvetica,sans-Serif" font-size="9.00" fill="#2980b9"> &#160;completed sig &#160;</text>
</g>
<!-- step9 -->
<g id="node9" class="node">
<title>step9</title>
<path fill="#dae8fc" stroke="#2980b9" d="M206.5,-186.76C206.5,-186.76 27.5,-186.76 27.5,-186.76 21.5,-186.76 15.5,-180.76 15.5,-174.76 15.5,-174.76 15.5,-135.76 15.5,-135.76 15.5,-129.76 21.5,-123.76 27.5,-123.76 27.5,-123.76 206.5,-123.76 206.5,-123.76 212.5,-123.76 218.5,-129.76 218.5,-135.76 218.5,-135.76 218.5,-174.76 218.5,-174.76 218.5,-180.76 212.5,-186.76 206.5,-186.76"/>
<text text-anchor="start" x="43" y="-174.96" font-family="Helvetica,sans-Serif" font-weight="bold" font-size="11.00">Step 9: Bob Claims XMR</text>
<text text-anchor="start" x="64.5" y="-163.96" font-family="Helvetica,sans-Serif" font-size="11.00">Extract k_a = s &#45; s&#39;</text>
<text text-anchor="start" x="23.5" y="-152.96" font-family="Helvetica,sans-Serif" font-size="11.00">Compute k_combined = k_a + k_b</text>
<text text-anchor="start" x="49" y="-141.96" font-family="Helvetica,sans-Serif" font-size="11.00">Sweep XMR to his wallet</text>
<text text-anchor="start" x="72" y="-130.96" font-family="Helvetica,sans-Serif" font-size="11.00" fill="#888888">State: Complete</text>
</g>
<!-- step8&#45;&gt;step9 -->
<g id="edge6" class="edge">
<title>step8&#45;&gt;step9</title>
<path fill="none" stroke="#27ae60" d="M117,-242.67C117,-228.47 117,-212.09 117,-197.43"/>
<polygon fill="#27ae60" stroke="#27ae60" points="120.5,-197.12 117,-187.12 113.5,-197.12 120.5,-197.12"/>
<text text-anchor="middle" x="155" y="-217.56" font-family="Helvetica,sans-Serif" font-size="9.00" fill="#27ae60"> &#160;Claim proof:</text>
<text text-anchor="middle" x="155" y="-207.56" font-family="Helvetica,sans-Serif" font-size="9.00" fill="#27ae60"> &#160;completed sig &#160;</text>
</g>
<!-- done -->
<g id="node10" class="node">
<title>done</title>
<path fill="#d4edda" stroke="#28a745" d="M203.47,-47.06C203.47,-47.06 203.47,-55.7 203.47,-55.7 203.47,-60.02 199.41,-65.8 195.35,-67.27 195.35,-67.27 160.94,-79.72 160.94,-79.72 156.88,-81.19 148.5,-82.65 144.18,-82.65 144.18,-82.65 89.82,-82.65 89.82,-82.65 85.5,-82.65 77.12,-81.19 73.06,-79.72 73.06,-79.72 38.65,-67.27 38.65,-67.27 34.59,-65.8 30.53,-60.02 30.53,-55.7 30.53,-55.7 30.53,-47.06 30.53,-47.06 30.53,-42.74 34.59,-36.96 38.65,-35.49 38.65,-35.49 73.06,-23.04 73.06,-23.04 77.12,-21.57 85.5,-20.11 89.82,-20.11 89.82,-20.11 144.18,-20.11 144.18,-20.11 148.5,-20.11 156.88,-21.57 160.94,-23.04 160.94,-23.04 195.35,-35.49 195.35,-35.49 199.41,-36.96 203.47,-42.74 203.47,-47.06"/>
<path fill="none" stroke="#28a745" d="M207.47,-46.13C207.47,-46.13 207.47,-56.63 207.47,-56.63 207.47,-61.88 202.54,-68.91 197.6,-70.7 197.6,-70.7 163.39,-83.07 163.39,-83.07 158.46,-84.86 148.27,-86.64 143.02,-86.64 143.02,-86.64 90.98,-86.64 90.98,-86.64 85.73,-86.64 75.54,-84.86 70.61,-83.07 70.61,-83.07 36.4,-70.7 36.4,-70.7 31.46,-68.91 26.53,-61.88 26.53,-56.63 26.53,-56.63 26.53,-46.13 26.53,-46.13 26.53,-40.88 31.46,-33.85 36.4,-32.06 36.4,-32.06 70.61,-19.69 70.61,-19.69 75.54,-17.9 85.73,-16.12 90.98,-16.12 90.98,-16.12 143.02,-16.12 143.02,-16.12 148.27,-16.12 158.46,-17.9 163.39,-19.69 163.39,-19.69 197.6,-32.06 197.6,-32.06 202.54,-33.85 207.47,-40.88 207.47,-46.13"/>
<text text-anchor="start" x="68.5" y="-60.08" font-family="Helvetica,sans-Serif" font-weight="bold" font-size="11.00">Swap Complete</text>
<text text-anchor="start" x="74.5" y="-49.08" font-family="Helvetica,sans-Serif" font-size="11.00">Alice has WOW</text>
<text text-anchor="start" x="80.5" y="-38.08" font-family="Helvetica,sans-Serif" font-size="11.00">Bob has XMR</text>
</g>
<!-- step9&#45;&gt;done -->
<g id="edge7" class="edge">
<title>step9&#45;&gt;done</title>
<path fill="none" stroke="#555555" d="M117,-123.69C117,-115.26 117,-105.94 117,-96.89"/>
<polygon fill="#555555" stroke="#555555" points="120.5,-96.85 117,-86.85 113.5,-96.85 120.5,-96.85"/>
</g>
<!-- leg -->
<g id="node11" class="node">
<title>leg</title>
<path fill="white" stroke="transparent" d="M438.5,-1169.76C438.5,-1169.76 239.5,-1169.76 239.5,-1169.76 233.5,-1169.76 227.5,-1163.76 227.5,-1157.76 227.5,-1157.76 227.5,-1107.76 227.5,-1107.76 227.5,-1101.76 233.5,-1095.76 239.5,-1095.76 239.5,-1095.76 438.5,-1095.76 438.5,-1095.76 444.5,-1095.76 450.5,-1101.76 450.5,-1107.76 450.5,-1107.76 450.5,-1157.76 450.5,-1157.76 450.5,-1163.76 444.5,-1169.76 438.5,-1169.76"/>
<path fill="#d5e8d4" stroke="transparent" d="M246,-1143.76C246,-1143.76 312,-1143.76 312,-1143.76 315,-1143.76 318,-1146.76 318,-1149.76 318,-1149.76 318,-1155.76 318,-1155.76 318,-1158.76 315,-1161.76 312,-1161.76 312,-1161.76 246,-1161.76 246,-1161.76 243,-1161.76 240,-1158.76 240,-1155.76 240,-1155.76 240,-1149.76 240,-1149.76 240,-1146.76 243,-1143.76 246,-1143.76"/>
<path fill="none" stroke="#2980b9" d="M246,-1143.76C246,-1143.76 312,-1143.76 312,-1143.76 315,-1143.76 318,-1146.76 318,-1149.76 318,-1149.76 318,-1155.76 318,-1155.76 318,-1158.76 315,-1161.76 312,-1161.76 312,-1161.76 246,-1161.76 246,-1161.76 243,-1161.76 240,-1158.76 240,-1155.76 240,-1155.76 240,-1149.76 240,-1149.76 240,-1146.76 243,-1143.76 246,-1143.76"/>
<text text-anchor="start" x="243" y="-1149.96" font-family="Helvetica,sans-Serif" font-size="11.00"> Alice action </text>
<path fill="#dae8fc" stroke="transparent" d="M328,-1143.76C328,-1143.76 389,-1143.76 389,-1143.76 392,-1143.76 395,-1146.76 395,-1149.76 395,-1149.76 395,-1155.76 395,-1155.76 395,-1158.76 392,-1161.76 389,-1161.76 389,-1161.76 328,-1161.76 328,-1161.76 325,-1161.76 322,-1158.76 322,-1155.76 322,-1155.76 322,-1149.76 322,-1149.76 322,-1146.76 325,-1143.76 328,-1143.76"/>
<path fill="none" stroke="#2980b9" d="M328,-1143.76C328,-1143.76 389,-1143.76 389,-1143.76 392,-1143.76 395,-1146.76 395,-1149.76 395,-1149.76 395,-1155.76 395,-1155.76 395,-1158.76 392,-1161.76 389,-1161.76 389,-1161.76 328,-1161.76 328,-1161.76 325,-1161.76 322,-1158.76 322,-1155.76 322,-1155.76 322,-1149.76 322,-1149.76 322,-1146.76 325,-1143.76 328,-1143.76"/>
<text text-anchor="start" x="325" y="-1149.96" font-family="Helvetica,sans-Serif" font-size="11.00"> Bob action </text>
<path fill="#e8f4fd" stroke="transparent" d="M405,-1143.76C405,-1143.76 433,-1143.76 433,-1143.76 436,-1143.76 439,-1146.76 439,-1149.76 439,-1149.76 439,-1155.76 439,-1155.76 439,-1158.76 436,-1161.76 433,-1161.76 433,-1161.76 405,-1161.76 405,-1161.76 402,-1161.76 399,-1158.76 399,-1155.76 399,-1155.76 399,-1149.76 399,-1149.76 399,-1146.76 402,-1143.76 405,-1143.76"/>
<path fill="none" stroke="#2980b9" d="M405,-1143.76C405,-1143.76 433,-1143.76 433,-1143.76 436,-1143.76 439,-1146.76 439,-1149.76 439,-1149.76 439,-1155.76 439,-1155.76 439,-1158.76 436,-1161.76 433,-1161.76 433,-1161.76 405,-1161.76 405,-1161.76 402,-1161.76 399,-1158.76 399,-1155.76 399,-1155.76 399,-1149.76 399,-1149.76 399,-1146.76 402,-1143.76 405,-1143.76"/>
<text text-anchor="start" x="402" y="-1149.96" font-family="Helvetica,sans-Serif" font-size="11.00"> Both </text>
<text text-anchor="start" x="262.5" y="-1128.96" font-family="Helvetica,sans-Serif" font-size="11.00" fill="#27ae60">Green arrows = Alice sends</text>
<text text-anchor="start" x="270" y="-1108.96" font-family="Helvetica,sans-Serif" font-size="11.00" fill="#2980b9">Blue arrows = Bob sends</text>
</g>
</g>
</svg>
