<?xml version="1.0" encoding="UTF-8" standalone="no"?>
<!DOCTYPE svg PUBLIC "-//W3C//DTD SVG 1.1//EN"
 "http://www.w3.org/Graphics/SVG/1.1/DTD/svg11.dtd">
<!-- Generated by graphviz version 2.43.0 (0)
 -->
<!-- Title: failure_paths Pages: 1 -->
<svg width="1360pt" height="978pt"
 viewBox="0.00 0.00 1359.55 978.00" xmlns="http://www.w3.org/2000/svg" xmlns:xlink="http://www.w3.org/1999/xlink">
<g id="graph0" class="graph" transform="scale(1 1) rotate(0) translate(4 974)">
<title>failure_paths</title>
<polygon fill="white" stroke="transparent" points="-4,4 -4,-974 1355.55,-974 1355.55,4 -4,4"/>
<text text-anchor="start" x="449.77" y="-954.2" font-family="Helvetica,sans-Serif" font-weight="bold" font-size="16.00">XMR&#45;WOW Atomic Swap: Failure and Refund Paths</text>
<text text-anchor="start" x="555.77" y="-943" font-family="Helvetica,sans-Serif" font-size="10.00">What happens when the swap fails at each stage</text>
<g id="clust1" class="cluster">
<title>cluster_timing</title>
<polygon fill="none" stroke="#999999" stroke-dasharray="5,2" points="707.55,-741 707.55,-928 1021.55,-928 1021.55,-741 707.55,-741"/>
<text text-anchor="middle" x="864.55" y="-915.2" font-family="Helvetica,sans-Serif" font-size="11.00">Timelock Safety Invariant</text>
</g>
<g id="clust2" class="cluster">
<title>cluster_atomicity</title>
<polygon fill="none" stroke="#999999" stroke-dasharray="5,2" points="1029.55,-746.5 1029.55,-922.5 1343.55,-922.5 1343.55,-746.5 1029.55,-746.5"/>
<text text-anchor="middle" x="1186.55" y="-909.7" font-family="Helvetica,sans-Serif" font-size="11.00">Adaptor Signature Atomicity</text>
</g>
<!-- setup -->
<g id="node1" class="node">
<title>setup</title>
<path fill="#d4edda" stroke="#2980b9" d="M685.55,-850.5C685.55,-850.5 563.55,-850.5 563.55,-850.5 557.55,-850.5 551.55,-844.5 551.55,-838.5 551.55,-838.5 551.55,-810.5 551.55,-810.5 551.55,-804.5 557.55,-798.5 563.55,-798.5 563.55,-798.5 685.55,-798.5 685.55,-798.5 691.55,-798.5 697.55,-804.5 697.55,-810.5 697.55,-810.5 697.55,-838.5 697.55,-838.5 697.55,-844.5 691.55,-850.5 685.55,-850.5"/>
<text text-anchor="start" x="575.05" y="-838.7" font-family="Helvetica,sans-Serif" font-weight="bold" font-size="11.00">Setup Complete</text>
<text text-anchor="start" x="583.05" y="-827.7" font-family="Helvetica,sans-Serif" font-size="11.00">Steps 1&#45;3 done</text>
<text text-anchor="start" x="559.55" y="-816.7" font-family="Helvetica,sans-Serif" font-size="11.00">Joint addresses derived</text>
<text text-anchor="start" x="570.05" y="-805.7" font-family="Helvetica,sans-Serif" font-size="11.00">No funds at risk yet</text>
</g>
<!-- bob_locks -->
<g id="node2" class="node">
<title>bob_locks</title>
<path fill="#dae8fc" stroke="#2980b9" d="M681.55,-703C681.55,-703 567.55,-703 567.55,-703 561.55,-703 555.55,-697 555.55,-691 555.55,-691 555.55,-674 555.55,-674 555.55,-668 561.55,-662 567.55,-662 567.55,-662 681.55,-662 681.55,-662 687.55,-662 693.55,-668 693.55,-674 693.55,-674 693.55,-691 693.55,-691 693.55,-697 687.55,-703 681.55,-703"/>
<text text-anchor="start" x="574.55" y="-691.2" font-family="Helvetica,sans-Serif" font-weight="bold" font-size="11.00">Bob Locks WOW</text>
<text text-anchor="start" x="565.55" y="-680.2" font-family="Helvetica,sans-Serif" font-size="11.00">Step 4: WOW sent to</text>
<text text-anchor="start" x="563.55" y="-669.2" font-family="Helvetica,sans-Serif" font-size="11.00">joint address on&#45;chain</text>
</g>
<!-- setup&#45;&gt;bob_locks -->
<g id="edge1" class="edge">
<title>setup&#45;&gt;bob_locks</title>
<path fill="none" stroke="#555555" d="M624.55,-798.47C624.55,-774.66 624.55,-738.81 624.55,-713.48"/>
<polygon fill="#555555" stroke="#555555" points="628.05,-713.34 624.55,-703.34 621.05,-713.34 628.05,-713.34"/>
<text text-anchor="middle" x="646.05" y="-723.8" font-family="Helvetica,sans-Serif" font-size="9.00"> &#160;Step 4 &#160;</text>
</g>
<!-- alice_locks -->
<g id="node3" class="node">
<title>alice_locks</title>
<path fill="#d5e8d4" stroke="#2980b9" d="M546.55,-595.5C546.55,-595.5 432.55,-595.5 432.55,-595.5 426.55,-595.5 420.55,-589.5 420.55,-583.5 420.55,-583.5 420.55,-566.5 420.55,-566.5 420.55,-560.5 426.55,-554.5 432.55,-554.5 432.55,-554.5 546.55,-554.5 546.55,-554.5 552.55,-554.5 558.55,-560.5 558.55,-566.5 558.55,-566.5 558.55,-583.5 558.55,-583.5 558.55,-589.5 552.55,-595.5 546.55,-595.5"/>
<text text-anchor="start" x="439.05" y="-583.7" font-family="Helvetica,sans-Serif" font-weight="bold" font-size="11.00">Alice Locks XMR</text>
<text text-anchor="start" x="434.05" y="-572.7" font-family="Helvetica,sans-Serif" font-size="11.00">Step 5: XMR sent to</text>
<text text-anchor="start" x="428.55" y="-561.7" font-family="Helvetica,sans-Serif" font-size="11.00">joint address on&#45;chain</text>
</g>
<!-- bob_locks&#45;&gt;alice_locks -->
<g id="edge2" class="edge">
<title>bob_locks&#45;&gt;alice_locks</title>
<path fill="none" stroke="#555555" d="M599.47,-661.9C577.92,-645.06 546.66,-620.63 522.98,-602.13"/>
<polygon fill="#555555" stroke="#555555" points="524.98,-599.25 514.95,-595.85 520.67,-604.76 524.98,-599.25"/>
<text text-anchor="middle" x="595.05" y="-636.8" font-family="Helvetica,sans-Serif" font-size="9.00"> &#160;Step 5 &#160;</text>
</g>
<!-- fail_a -->
<g id="node8" class="node">
<title>fail_a</title>
<path fill="#fff3cd" stroke="#ffc107" d="M747.84,-613.38C747.84,-613.38 588.26,-577.62 588.26,-577.62 582.4,-576.31 582.4,-573.69 588.26,-572.38 588.26,-572.38 747.84,-536.62 747.84,-536.62 753.69,-535.31 765.4,-535.31 771.26,-536.62 771.26,-536.62 930.84,-572.38 930.84,-572.38 936.69,-573.69 936.69,-576.31 930.84,-577.62 930.84,-577.62 771.26,-613.38 771.26,-613.38 765.4,-614.69 753.69,-614.69 747.84,-613.38"/>
<text text-anchor="start" x="681.05" y="-583.7" font-family="Helvetica,sans-Serif" font-weight="bold" font-size="11.00">Failure A: Alice Abandons</text>
<text text-anchor="start" x="676.05" y="-572.7" font-family="Helvetica,sans-Serif" font-style="italic" font-size="11.00">After Bob locks WOW (Step 4)</text>
<text text-anchor="start" x="698.55" y="-561.7" font-family="Helvetica,sans-Serif" font-style="italic" font-size="11.00">Alice never locks XMR</text>
</g>
<!-- bob_locks&#45;&gt;fail_a -->
<g id="edge7" class="edge">
<title>bob_locks&#45;&gt;fail_a</title>
<path fill="none" stroke="#dc3545" stroke-dasharray="5,2" d="M649.63,-661.9C667.07,-648.27 690.87,-629.67 711.87,-613.26"/>
<polygon fill="#dc3545" stroke="#dc3545" points="714.03,-616.01 719.76,-607.1 709.72,-610.5 714.03,-616.01"/>
<text text-anchor="middle" x="727.05" y="-636.8" font-family="Helvetica,sans-Serif" font-size="9.00" fill="#dc3545"> &#160;Alice disappears &#160;</text>
</g>
<!-- presigs -->
<g id="node4" class="node">
<title>presigs</title>
<path fill="#e8f4fd" stroke="#2980b9" d="M546.55,-460.5C546.55,-460.5 432.55,-460.5 432.55,-460.5 426.55,-460.5 420.55,-454.5 420.55,-448.5 420.55,-448.5 420.55,-431.5 420.55,-431.5 420.55,-425.5 426.55,-419.5 432.55,-419.5 432.55,-419.5 546.55,-419.5 546.55,-419.5 552.55,-419.5 558.55,-425.5 558.55,-431.5 558.55,-431.5 558.55,-448.5 558.55,-448.5 558.55,-454.5 552.55,-460.5 546.55,-460.5"/>
<text text-anchor="start" x="428.55" y="-448.7" font-family="Helvetica,sans-Serif" font-weight="bold" font-size="11.00">Pre&#45;Sigs Exchanged</text>
<text text-anchor="start" x="439.55" y="-437.7" font-family="Helvetica,sans-Serif" font-size="11.00">Step 6: Both have</text>
<text text-anchor="start" x="430.05" y="-426.7" font-family="Helvetica,sans-Serif" font-size="11.00">counterparty pre&#45;sigs</text>
</g>
<!-- alice_locks&#45;&gt;presigs -->
<g id="edge3" class="edge">
<title>alice_locks&#45;&gt;presigs</title>
<path fill="none" stroke="#555555" d="M489.55,-554.38C489.55,-532.37 489.55,-496.44 489.55,-470.93"/>
<polygon fill="#555555" stroke="#555555" points="493.05,-470.71 489.55,-460.71 486.05,-470.71 493.05,-470.71"/>
<text text-anchor="middle" x="511.05" y="-508.8" font-family="Helvetica,sans-Serif" font-size="9.00"> &#160;Step 6 &#160;</text>
</g>
<!-- alice_claims -->
<g id="node5" class="node">
<title>alice_claims</title>
<path fill="#d5e8d4" stroke="#2980b9" d="M390.55,-325.5C390.55,-325.5 286.55,-325.5 286.55,-325.5 280.55,-325.5 274.55,-319.5 274.55,-313.5 274.55,-313.5 274.55,-296.5 274.55,-296.5 274.55,-290.5 280.55,-284.5 286.55,-284.5 286.55,-284.5 390.55,-284.5 390.55,-284.5 396.55,-284.5 402.55,-290.5 402.55,-296.5 402.55,-296.5 402.55,-313.5 402.55,-313.5 402.55,-319.5 396.55,-325.5 390.55,-325.5"/>
<text text-anchor="start" x="282.55" y="-313.7" font-family="Helvetica,sans-Serif" font-weight="bold" font-size="11.00">Alice Claims WOW</text>
<text text-anchor="start" x="282.55" y="-302.7" font-family="Helvetica,sans-Serif" font-size="11.00">Step 8: WOW swept</text>
<text text-anchor="start" x="294.55" y="-291.7" font-family="Helvetica,sans-Serif" font-size="11.00">to Alice&#39;s wallet</text>
</g>
<!-- presigs&#45;&gt;alice_claims -->
<g id="edge4" class="edge">
<title>presigs&#45;&gt;alice_claims</title>
<path fill="none" stroke="#555555" d="M467.27,-419.38C441.17,-396.39 397.82,-358.2 368.72,-332.58"/>
<polygon fill="#555555" stroke="#555555" points="370.74,-329.69 360.92,-325.71 366.11,-334.94 370.74,-329.69"/>
<text text-anchor="middle" x="442.55" y="-366.8" font-family="Helvetica,sans-Serif" font-size="9.00"> &#160;Steps 7&#45;8 &#160;</text>
</g>
<!-- fail_b -->
<g id="node11" class="node">
<title>fail_b</title>
<path fill="#fff3cd" stroke="#ffc107" d="M629.91,-343.09C629.91,-343.09 489.19,-307.91 489.19,-307.91 483.37,-306.46 483.37,-303.54 489.19,-302.09 489.19,-302.09 629.91,-266.91 629.91,-266.91 635.73,-265.46 647.37,-265.46 653.19,-266.91 653.19,-266.91 793.91,-302.09 793.91,-302.09 799.73,-303.54 799.73,-306.46 793.91,-307.91 793.91,-307.91 653.19,-343.09 653.19,-343.09 647.37,-344.54 635.73,-344.54 629.91,-343.09"/>
<text text-anchor="start" x="567.55" y="-313.7" font-family="Helvetica,sans-Serif" font-weight="bold" font-size="11.00">Failure B: Both Abandon</text>
<text text-anchor="start" x="568.55" y="-302.7" font-family="Helvetica,sans-Serif" font-style="italic" font-size="11.00">After both lock (Steps 4&#45;5)</text>
<text text-anchor="start" x="585.05" y="-291.7" font-family="Helvetica,sans-Serif" font-style="italic" font-size="11.00">Neither party claims</text>
</g>
<!-- presigs&#45;&gt;fail_b -->
<g id="edge10" class="edge">
<title>presigs&#45;&gt;fail_b</title>
<path fill="none" stroke="#dc3545" stroke-dasharray="5,2" d="M511.98,-419.38C534.55,-399.63 569.94,-368.66 598.04,-344.07"/>
<polygon fill="#dc3545" stroke="#dc3545" points="600.53,-346.54 605.75,-337.32 595.92,-341.27 600.53,-346.54"/>
<text text-anchor="middle" x="616.05" y="-366.8" font-family="Helvetica,sans-Serif" font-size="9.00" fill="#dc3545"> &#160;Both disappear &#160;</text>
</g>
<!-- bob_claims -->
<g id="node6" class="node">
<title>bob_claims</title>
<path fill="#dae8fc" stroke="#2980b9" d="M126.05,-196C126.05,-196 29.05,-196 29.05,-196 23.05,-196 17.05,-190 17.05,-184 17.05,-184 17.05,-167 17.05,-167 17.05,-161 23.05,-155 29.05,-155 29.05,-155 126.05,-155 126.05,-155 132.05,-155 138.05,-161 138.05,-167 138.05,-167 138.05,-184 138.05,-184 138.05,-190 132.05,-196 126.05,-196"/>
<text text-anchor="start" x="27.55" y="-184.2" font-family="Helvetica,sans-Serif" font-weight="bold" font-size="11.00">Bob Claims XMR</text>
<text text-anchor="start" x="25.05" y="-173.2" font-family="Helvetica,sans-Serif" font-size="11.00">Step 9: XMR swept</text>
<text text-anchor="start" x="36.55" y="-162.2" font-family="Helvetica,sans-Serif" font-size="11.00">to Bob&#39;s wallet</text>
</g>
<!-- alice_claims&#45;&gt;bob_claims -->
<g id="edge5" class="edge">
<title>alice_claims&#45;&gt;bob_claims</title>
<path fill="none" stroke="#555555" d="M291.15,-284.41C252.07,-267.85 195.47,-242.9 147.55,-218 137.66,-212.86 127.22,-206.95 117.51,-201.23"/>
<polygon fill="#555555" stroke="#555555" points="119.22,-198.18 108.84,-196.06 115.63,-204.19 119.22,-198.18"/>
<text text-anchor="middle" x="226.05" y="-238.8" font-family="Helvetica,sans-Serif" font-size="9.00"> &#160;Step 9 &#160;</text>
</g>
<!-- fail_c -->
<g id="node14" class="node">
<title>fail_c</title>
<path fill="#fff3cd" stroke="#ffc107" d="M326.84,-213.86C326.84,-213.86 168.26,-178.14 168.26,-178.14 162.4,-176.82 162.4,-174.18 168.26,-172.86 168.26,-172.86 326.84,-137.14 326.84,-137.14 332.7,-135.82 344.4,-135.82 350.26,-137.14 350.26,-137.14 508.84,-172.86 508.84,-172.86 514.7,-174.18 514.7,-176.82 508.84,-178.14 508.84,-178.14 350.26,-213.86 350.26,-213.86 344.4,-215.18 332.7,-215.18 326.84,-213.86"/>
<text text-anchor="start" x="255.55" y="-184.2" font-family="Helvetica,sans-Serif" font-weight="bold" font-size="11.00">Failure C: Alice Disappears</text>
<text text-anchor="start" x="258.55" y="-173.2" font-family="Helvetica,sans-Serif" font-style="italic" font-size="11.00">After claiming WOW (Step 8)</text>
<text text-anchor="start" x="266.05" y="-162.2" font-family="Helvetica,sans-Serif" font-style="italic" font-size="11.00">Doesn&#39;t send proof to Bob</text>
</g>
<!-- alice_claims&#45;&gt;fail_c -->
<g id="edge13" class="edge">
<title>alice_claims&#45;&gt;fail_c</title>
<path fill="none" stroke="#dc3545" stroke-dasharray="5,2" d="M338.55,-284.36C338.55,-269 338.55,-246.94 338.55,-226.77"/>
<polygon fill="#dc3545" stroke="#dc3545" points="342.05,-226.75 338.55,-216.75 335.05,-226.75 342.05,-226.75"/>
<text text-anchor="middle" x="381.05" y="-238.8" font-family="Helvetica,sans-Serif" font-size="9.00" fill="#dc3545"> &#160;Alice disappears &#160;</text>
</g>
<!-- complete -->
<g id="node7" class="node">
<title>complete</title>
<path fill="#d4edda" stroke="#28a745" d="M151.15,-45.51C151.15,-45.51 151.15,-50.49 151.15,-50.49 151.15,-52.97 148.73,-56.05 146.32,-56.64 146.32,-56.64 112.86,-64.82 112.86,-64.82 110.45,-65.41 105.55,-66 103.06,-66 103.06,-66 52.04,-66 52.04,-66 49.55,-66 44.65,-65.41 42.24,-64.82 42.24,-64.82 8.78,-56.64 8.78,-56.64 6.37,-56.05 3.95,-52.97 3.95,-50.49 3.95,-50.49 3.95,-45.51 3.95,-45.51 3.95,-43.03 6.37,-39.95 8.78,-39.36 8.78,-39.36 42.24,-31.18 42.24,-31.18 44.65,-30.59 49.55,-30 52.04,-30 52.04,-30 103.06,-30 103.06,-30 105.55,-30 110.45,-30.59 112.86,-31.18 112.86,-31.18 146.32,-39.36 146.32,-39.36 148.73,-39.95 151.15,-43.03 151.15,-45.51"/>
<path fill="none" stroke="#28a745" d="M155.15,-44.47C155.15,-44.47 155.15,-51.53 155.15,-51.53 155.15,-55.06 151.72,-59.43 148.29,-60.27 148.29,-60.27 115.38,-68.32 115.38,-68.32 111.95,-69.16 104.99,-70 101.45,-70 101.45,-70 53.65,-70 53.65,-70 50.11,-70 43.15,-69.16 39.72,-68.32 39.72,-68.32 6.81,-60.27 6.81,-60.27 3.38,-59.43 -0.05,-55.06 -0.05,-51.53 -0.05,-51.53 -0.05,-44.47 -0.05,-44.47 -0.05,-40.94 3.38,-36.57 6.81,-35.73 6.81,-35.73 39.72,-27.68 39.72,-27.68 43.15,-26.84 50.11,-26 53.65,-26 53.65,-26 101.45,-26 101.45,-26 104.99,-26 111.95,-26.84 115.38,-27.68 115.38,-27.68 148.29,-35.73 148.29,-35.73 151.72,-36.57 155.15,-40.94 155.15,-44.47"/>
<text text-anchor="start" x="29.05" y="-46.2" font-family="Helvetica,sans-Serif" font-weight="bold" font-size="11.00">Swap Complete</text>
</g>
<!-- bob_claims&#45;&gt;complete -->
<g id="edge6" class="edge">
<title>bob_claims&#45;&gt;complete</title>
<path fill="none" stroke="#555555" d="M77.55,-154.89C77.55,-134.92 77.55,-103.66 77.55,-80.27"/>
<polygon fill="#555555" stroke="#555555" points="81.05,-80.15 77.55,-70.15 74.05,-80.15 81.05,-80.15"/>
</g>
<!-- refund_a -->
<g id="node9" class="node">
<title>refund_a</title>
<path fill="#f8d7da" stroke="#dc3545" d="M810.55,-488C810.55,-488 628.55,-488 628.55,-488 622.55,-488 616.55,-482 616.55,-476 616.55,-476 616.55,-404 616.55,-404 616.55,-398 622.55,-392 628.55,-392 628.55,-392 810.55,-392 810.55,-392 816.55,-392 822.55,-398 822.55,-404 822.55,-404 822.55,-476 822.55,-476 822.55,-482 816.55,-488 810.55,-488"/>
<text text-anchor="start" x="662.55" y="-476.2" font-family="Helvetica,sans-Serif" font-weight="bold" font-size="11.00">Bob Refunds WOW</text>
<text text-anchor="start" x="643.05" y="-465.2" font-family="Helvetica,sans-Serif" font-size="11.00">Wait for wow_refund_height</text>
<text text-anchor="start" x="648.55" y="-454.2" font-family="Helvetica,sans-Serif" font-size="11.00">(~200 blocks / ~400 min)</text>
<text text-anchor="start" x="661.55" y="-443.2" font-family="Helvetica,sans-Serif" font-size="11.00">Sweep WOW back to</text>
<text text-anchor="start" x="661.05" y="-432.2" font-family="Helvetica,sans-Serif" font-size="11.00">Bob&#39;s refund address</text>
<text text-anchor="start" x="624.55" y="-410.2" font-family="Helvetica,sans-Serif" font-size="11.00" fill="#cc0000">Status: unsupported&#45;for&#45;guarantee</text>
<text text-anchor="start" x="646.05" y="-399.2" font-family="Helvetica,sans-Serif" font-size="11.00" fill="#cc0000">(keysplit refund unproven)</text>
</g>
<!-- fail_a&#45;&gt;refund_a -->
<g id="edge8" class="edge">
<title>fail_a&#45;&gt;refund_a</title>
<path fill="none" stroke="#555555" d="M748.19,-536.24C744.62,-524.37 740.6,-510.98 736.72,-498.08"/>
<polygon fill="#555555" stroke="#555555" points="740.02,-496.91 733.79,-488.34 733.32,-498.93 740.02,-496.91"/>
</g>
<!-- safe_a -->
<g id="node10" class="node">
<title>safe_a</title>
<path fill="#d4edda" stroke="#28a745" d="M950.55,-460.5C950.55,-460.5 852.55,-460.5 852.55,-460.5 846.55,-460.5 840.55,-454.5 840.55,-448.5 840.55,-448.5 840.55,-431.5 840.55,-431.5 840.55,-425.5 846.55,-419.5 852.55,-419.5 852.55,-419.5 950.55,-419.5 950.55,-419.5 956.55,-419.5 962.55,-425.5 962.55,-431.5 962.55,-431.5 962.55,-448.5 962.55,-448.5 962.55,-454.5 956.55,-460.5 950.55,-460.5"/>
<text text-anchor="start" x="868.05" y="-448.7" font-family="Helvetica,sans-Serif" font-weight="bold" font-size="11.00">Alice: Safe</text>
<text text-anchor="start" x="851.05" y="-437.7" font-family="Helvetica,sans-Serif" font-size="11.00">Never locked XMR</text>
<text text-anchor="start" x="848.55" y="-426.7" font-family="Helvetica,sans-Serif" font-size="11.00">Funds still in wallet</text>
</g>
<!-- fail_a&#45;&gt;safe_a -->
<g id="edge9" class="edge">
<title>fail_a&#45;&gt;safe_a</title>
<path fill="none" stroke="#555555" d="M794.29,-541.46C818.48,-518.8 850.36,-488.95 873.06,-467.68"/>
<polygon fill="#555555" stroke="#555555" points="875.48,-470.22 880.38,-460.83 870.69,-465.11 875.48,-470.22"/>
</g>
<!-- refund_b_bob -->
<g id="node12" class="node">
<title>refund_b_bob</title>
<path fill="#f8d7da" stroke="#dc3545" d="M732.55,-201.5C732.55,-201.5 550.55,-201.5 550.55,-201.5 544.55,-201.5 538.55,-195.5 538.55,-189.5 538.55,-189.5 538.55,-161.5 538.55,-161.5 538.55,-155.5 544.55,-149.5 550.55,-149.5 550.55,-149.5 732.55,-149.5 732.55,-149.5 738.55,-149.5 744.55,-155.5 744.55,-161.5 744.55,-161.5 744.55,-189.5 744.55,-189.5 744.55,-195.5 738.55,-201.5 732.55,-201.5"/>
<text text-anchor="start" x="584.55" y="-189.7" font-family="Helvetica,sans-Serif" font-weight="bold" font-size="11.00">Bob Refunds WOW</text>
<text text-anchor="start" x="565.05" y="-178.7" font-family="Helvetica,sans-Serif" font-size="11.00">Wait for wow_refund_height</text>
<text text-anchor="start" x="546.55" y="-156.7" font-family="Helvetica,sans-Serif" font-size="11.00" fill="#cc0000">Status: unsupported&#45;for&#45;guarantee</text>
</g>
<!-- fail_b&#45;&gt;refund_b_bob -->
<g id="edge11" class="edge">
<title>fail_b&#45;&gt;refund_b_bob</title>
<path fill="none" stroke="#555555" d="M641.55,-263.66C641.55,-247.02 641.55,-227.91 641.55,-211.84"/>
<polygon fill="#555555" stroke="#555555" points="645.05,-211.77 641.55,-201.77 638.05,-211.77 645.05,-211.77"/>
</g>
<!-- refund_b_alice -->
<g id="node13" class="node">
<title>refund_b_alice</title>
<path fill="#f8d7da" stroke="#dc3545" d="M924.05,-218C924.05,-218 775.05,-218 775.05,-218 769.05,-218 763.05,-212 763.05,-206 763.05,-206 763.05,-145 763.05,-145 763.05,-139 769.05,-133 775.05,-133 775.05,-133 924.05,-133 924.05,-133 930.05,-133 936.05,-139 936.05,-145 936.05,-145 936.05,-206 936.05,-206 936.05,-212 930.05,-218 924.05,-218"/>
<text text-anchor="start" x="792.05" y="-206.2" font-family="Helvetica,sans-Serif" font-weight="bold" font-size="11.00">Alice Refunds XMR</text>
<text text-anchor="start" x="774.55" y="-195.2" font-family="Helvetica,sans-Serif" font-size="11.00">Wait for xmr_refund_height</text>
<text text-anchor="start" x="771.05" y="-184.2" font-family="Helvetica,sans-Serif" font-size="11.00">TX has unlock_time baked in</text>
<text text-anchor="start" x="807.05" y="-162.2" font-family="Helvetica,sans-Serif" font-size="11.00" fill="#cc0000">Status: blocked</text>
<text text-anchor="start" x="781.55" y="-151.2" font-family="Helvetica,sans-Serif" font-size="11.00" fill="#cc0000">(Monero rejects nonzero</text>
<text text-anchor="start" x="798.55" y="-140.2" font-family="Helvetica,sans-Serif" font-size="11.00" fill="#cc0000">unlock_time relay)</text>
</g>
<!-- fail_b&#45;&gt;refund_b_alice -->
<g id="edge12" class="edge">
<title>fail_b&#45;&gt;refund_b_alice</title>
<path fill="none" stroke="#555555" d="M687.97,-275.55C712.93,-260.25 744.34,-240.99 772.82,-223.53"/>
<polygon fill="#555555" stroke="#555555" points="774.86,-226.39 781.56,-218.18 771.2,-220.42 774.86,-226.39"/>
</g>
<!-- recover_c -->
<g id="node15" class="node">
<title>recover_c</title>
<path fill="#d4edda" stroke="#28a745" d="M431.05,-96C431.05,-96 246.05,-96 246.05,-96 240.05,-96 234.05,-90 234.05,-84 234.05,-84 234.05,-12 234.05,-12 234.05,-6 240.05,0 246.05,0 246.05,0 431.05,0 431.05,0 437.05,0 443.05,-6 443.05,-12 443.05,-12 443.05,-84 443.05,-84 443.05,-90 437.05,-96 431.05,-96"/>
<text text-anchor="start" x="280.55" y="-84.2" font-family="Helvetica,sans-Serif" font-weight="bold" font-size="11.00">Bob Recovers XMR</text>
<text text-anchor="start" x="260.55" y="-73.2" font-family="Helvetica,sans-Serif" font-size="11.00">Alice&#39;s sweep TX is on&#45;chain</text>
<text text-anchor="start" x="263.05" y="-62.2" font-family="Helvetica,sans-Serif" font-size="11.00">Contains her completed sig</text>
<text text-anchor="start" x="261.05" y="-51.2" font-family="Helvetica,sans-Serif" font-size="11.00">Bob extracts k_a from chain</text>
<text text-anchor="start" x="242.05" y="-40.2" font-family="Helvetica,sans-Serif" font-size="11.00">Computes k_combined = k_a + k_b</text>
<text text-anchor="start" x="277.05" y="-29.2" font-family="Helvetica,sans-Serif" font-size="11.00">Sweeps XMR normally</text>
<text text-anchor="start" x="252.55" y="-7.2" font-family="Helvetica,sans-Serif" font-size="11.00" fill="#28a745">Atomicity guarantees recovery</text>
</g>
<!-- fail_c&#45;&gt;recover_c -->
<g id="edge14" class="edge">
<title>fail_c&#45;&gt;recover_c</title>
<path fill="none" stroke="#555555" d="M338.55,-134.45C338.55,-125.49 338.55,-115.82 338.55,-106.32"/>
<polygon fill="#555555" stroke="#555555" points="342.05,-106.12 338.55,-96.12 335.05,-106.12 342.05,-106.12"/>
</g>
<!-- timing -->
<g id="node16" class="node">
<title>timing</title>
<polygon fill="#fffde7" stroke="#f9a825" points="1007.55,-900 715.55,-900 715.55,-749 1013.55,-749 1013.55,-894 1007.55,-900"/>
<polyline fill="none" stroke="#f9a825" points="1007.55,-900 1007.55,-894 "/>
<polyline fill="none" stroke="#f9a825" points="1013.55,-894 1007.55,-894 "/>
<text text-anchor="start" x="723.55" y="-888.2" font-family="Helvetica,sans-Serif" font-weight="bold" font-size="11.00">Why WOW lock must be longer than XMR lock</text>
<text text-anchor="start" x="747.55" y="-866.2" font-family="Helvetica,sans-Serif" font-size="11.00">wow_lock_blocks &gt; xmr_lock_blocks + 100</text>
<text text-anchor="start" x="744.05" y="-844.2" font-family="Helvetica,sans-Serif" font-size="11.00">Bob locks WOW first (Step 4), so his refund</text>
<text text-anchor="start" x="739.55" y="-833.2" font-family="Helvetica,sans-Serif" font-size="11.00">window must expire AFTER Alice has time to:</text>
<text text-anchor="start" x="807.05" y="-822.2" font-family="Helvetica,sans-Serif" font-size="11.00"> &#160;1. Verify WOW lock</text>
<text text-anchor="start" x="802.55" y="-811.2" font-family="Helvetica,sans-Serif" font-size="11.00"> &#160;2. Lock XMR (Step 5)</text>
<text text-anchor="start" x="779.55" y="-800.2" font-family="Helvetica,sans-Serif" font-size="11.00"> &#160;3. Exchange pre&#45;sigs (Step 6)</text>
<text text-anchor="start" x="796.55" y="-789.2" font-family="Helvetica,sans-Serif" font-size="11.00"> &#160;4. Claim WOW (Step 8)</text>
<text text-anchor="start" x="738.05" y="-767.2" font-family="Helvetica,sans-Serif" font-size="11.00">If WOW refund expired first, Bob could refund</text>
<text text-anchor="start" x="739.05" y="-756.2" font-family="Helvetica,sans-Serif" font-size="11.00">WOW while Alice still has XMR locked = theft</text>
</g>
<!-- atomicity -->
<g id="node17" class="node">
<title>atomicity</title>
<polygon fill="#e8f5e9" stroke="#43a047" points="1329.55,-894.5 1037.55,-894.5 1037.55,-754.5 1335.55,-754.5 1335.55,-888.5 1329.55,-894.5"/>
<polyline fill="none" stroke="#43a047" points="1329.55,-894.5 1329.55,-888.5 "/>
<polyline fill="none" stroke="#43a047" points="1335.55,-888.5 1329.55,-888.5 "/>
<text text-anchor="start" x="1121.05" y="-882.7" font-family="Helvetica,sans-Serif" font-weight="bold" font-size="11.00">How atomicity works</text>
<text text-anchor="start" x="1064.55" y="-860.7" font-family="Helvetica,sans-Serif" font-size="11.00">Each party creates a pre&#45;sig adapted by the</text>
<text text-anchor="start" x="1067.05" y="-849.7" font-family="Helvetica,sans-Serif" font-size="11.00">other&#39;s public key. To complete the sig, you</text>
<text text-anchor="start" x="1063.55" y="-838.7" font-family="Helvetica,sans-Serif" font-size="11.00">must know the adaptor secret (private key).</text>
<text text-anchor="start" x="1061.55" y="-816.7" font-family="Helvetica,sans-Serif" font-size="11.00">complete(pre_sig, secret) reveals the secret.</text>
<text text-anchor="start" x="1076.55" y="-805.7" font-family="Helvetica,sans-Serif" font-size="11.00">extract(pre_sig, completed) recovers it.</text>
<text text-anchor="start" x="1054.55" y="-783.7" font-family="Helvetica,sans-Serif" font-size="11.00">If Alice claims WOW, her sweep TX reveals k_a.</text>
<text text-anchor="start" x="1066.55" y="-772.7" font-family="Helvetica,sans-Serif" font-size="11.00">Bob can always extract k_a from the chain.</text>
<text text-anchor="start" x="1045.55" y="-761.7" font-family="Helvetica,sans-Serif" font-size="11.00">Neither party can claim without the other learning.</text>
</g>
</g>
</svg>
