<?xml version="1.0" encoding="UTF-8" standalone="no"?>
<!DOCTYPE svg PUBLIC "-//W3C//DTD SVG 1.1//EN"
 "http://www.w3.org/Graphics/SVG/1.1/DTD/svg11.dtd">
<!-- Generated by graphviz version 2.43.0 (0)
 -->
<!-- Title: state_machine Pages: 1 -->
<svg width="817pt" height="828pt"
 viewBox="0.00 0.00 816.50 827.60" xmlns="http://www.w3.org/2000/svg" xmlns:xlink="http://www.w3.org/1999/xlink">
<g id="graph0" class="graph" transform="scale(1 1) rotate(0) translate(4 823.6)">
<title>state_machine</title>
<polygon fill="white" stroke="transparent" points="-4,4 -4,-823.6 812.5,-823.6 812.5,4 -4,4"/>
<text text-anchor="start" x="263.75" y="-803.8" font-family="Helvetica,sans-Serif" font-weight="bold" font-size="16.00">XMR&#45;WOW Swap State Machine</text>
<text text-anchor="start" x="231.25" y="-792.6" font-family="Helvetica,sans-Serif" font-size="10.00">SwapState enum transitions (crates/xmr&#45;wow&#45;client/src/swap_state.rs)</text>
<g id="clust1" class="cluster">
<title>cluster_phases</title>
<polygon fill="none" stroke="#999999" stroke-dasharray="5,2" points="187.5,-630.6 187.5,-777.6 555.5,-777.6 555.5,-630.6 187.5,-630.6"/>
<text text-anchor="middle" x="371.5" y="-765.6" font-family="Helvetica,sans-Serif" font-size="10.00">Protocol Phases</text>
</g>
<!-- keygen -->
<g id="node1" class="node">
<title>keygen</title>
<path fill="#fff9c4" stroke="#2980b9" d="M165,-720.6C165,-720.6 34,-720.6 34,-720.6 28,-720.6 22,-714.6 22,-708.6 22,-708.6 22,-680.6 22,-680.6 22,-674.6 28,-668.6 34,-668.6 34,-668.6 165,-668.6 165,-668.6 171,-668.6 177,-674.6 177,-680.6 177,-680.6 177,-708.6 177,-708.6 177,-714.6 171,-720.6 165,-720.6"/>
<text text-anchor="start" x="53.5" y="-708.8" font-family="Helvetica,sans-Serif" font-weight="bold" font-size="11.00">KeyGeneration</text>
<text text-anchor="start" x="64.5" y="-697.8" font-family="Helvetica,sans-Serif" font-size="11.00">role, params</text>
<text text-anchor="start" x="39" y="-686.8" font-family="Helvetica,sans-Serif" font-size="11.00">my_pubkey, my_proof</text>
<text text-anchor="start" x="30" y="-675.8" font-family="Helvetica,sans-Serif" font-size="11.00">secret_bytes (encrypted)</text>
</g>
<!-- dleq -->
<g id="node2" class="node">
<title>dleq</title>
<path fill="#fff9c4" stroke="#2980b9" d="M160.5,-582.6C160.5,-582.6 38.5,-582.6 38.5,-582.6 32.5,-582.6 26.5,-576.6 26.5,-570.6 26.5,-570.6 26.5,-553.6 26.5,-553.6 26.5,-547.6 32.5,-541.6 38.5,-541.6 38.5,-541.6 160.5,-541.6 160.5,-541.6 166.5,-541.6 172.5,-547.6 172.5,-553.6 172.5,-553.6 172.5,-570.6 172.5,-570.6 172.5,-576.6 166.5,-582.6 160.5,-582.6"/>
<text text-anchor="start" x="56" y="-570.8" font-family="Helvetica,sans-Serif" font-weight="bold" font-size="11.00">DleqExchange</text>
<text text-anchor="start" x="34.5" y="-559.8" font-family="Helvetica,sans-Serif" font-size="11.00">+ counterparty_pubkey</text>
<text text-anchor="start" x="45.5" y="-548.8" font-family="Helvetica,sans-Serif" font-size="11.00">DLEQ proof verified</text>
</g>
<!-- keygen&#45;&gt;dleq -->
<g id="edge1" class="edge">
<title>keygen&#45;&gt;dleq</title>
<path fill="none" stroke="#555555" d="M99.5,-668.44C99.5,-646.82 99.5,-615.63 99.5,-592.8"/>
<polygon fill="#555555" stroke="#555555" points="103,-592.65 99.5,-582.65 96,-592.65 103,-592.65"/>
<text text-anchor="middle" x="164.5" y="-613.4" font-family="Helvetica,sans-Serif" font-size="9.00"> &#160;receive_counterparty_key()</text>
<text text-anchor="middle" x="164.5" y="-603.4" font-family="Helvetica,sans-Serif" font-size="9.00"> &#160;Verify DLEQ proof &#160;</text>
</g>
<!-- joint -->
<g id="node3" class="node">
<title>joint</title>
<path fill="#c8e6c9" stroke="#2980b9" d="M187,-485.6C187,-485.6 12,-485.6 12,-485.6 6,-485.6 0,-479.6 0,-473.6 0,-473.6 0,-445.6 0,-445.6 0,-439.6 6,-433.6 12,-433.6 12,-433.6 187,-433.6 187,-433.6 193,-433.6 199,-439.6 199,-445.6 199,-445.6 199,-473.6 199,-473.6 199,-479.6 193,-485.6 187,-485.6"/>
<text text-anchor="start" x="60.5" y="-473.8" font-family="Helvetica,sans-Serif" font-weight="bold" font-size="11.00">JointAddress</text>
<text text-anchor="start" x="8" y="-462.8" font-family="Helvetica,sans-Serif" font-size="11.00">+ addresses (XMR + WOW joint)</text>
<text text-anchor="start" x="14.5" y="-451.8" font-family="Helvetica,sans-Serif" font-size="11.00">+ before_wow_lock_checkpoint</text>
<text text-anchor="start" x="24" y="-440.8" font-family="Helvetica,sans-Serif" font-size="11.00">swap_id = Hash(K_a || K_b)</text>
</g>
<!-- dleq&#45;&gt;joint -->
<g id="edge2" class="edge">
<title>dleq&#45;&gt;joint</title>
<path fill="none" stroke="#555555" d="M99.5,-541.24C99.5,-528.32 99.5,-511.11 99.5,-495.9"/>
<polygon fill="#555555" stroke="#555555" points="103,-495.77 99.5,-485.77 96,-495.77 103,-495.77"/>
<text text-anchor="middle" x="172.5" y="-516.4" font-family="Helvetica,sans-Serif" font-size="9.00"> &#160;derive_joint_addresses()</text>
<text text-anchor="middle" x="172.5" y="-506.4" font-family="Helvetica,sans-Serif" font-size="9.00"> &#160;Compute K_joint = K_a + K_b &#160;</text>
</g>
<!-- wow_locked -->
<g id="node4" class="node">
<title>wow_locked</title>
<path fill="#bbdefb" stroke="#2980b9" d="M429.5,-367.6C429.5,-367.6 251.5,-367.6 251.5,-367.6 245.5,-367.6 239.5,-361.6 239.5,-355.6 239.5,-355.6 239.5,-305.6 239.5,-305.6 239.5,-299.6 245.5,-293.6 251.5,-293.6 251.5,-293.6 429.5,-293.6 429.5,-293.6 435.5,-293.6 441.5,-299.6 441.5,-305.6 441.5,-305.6 441.5,-355.6 441.5,-355.6 441.5,-361.6 435.5,-367.6 429.5,-367.6"/>
<text text-anchor="start" x="304" y="-355.8" font-family="Helvetica,sans-Serif" font-weight="bold" font-size="11.00">WowLocked</text>
<text text-anchor="start" x="299.5" y="-344.8" font-family="Helvetica,sans-Serif" font-size="11.00">+ wow_lock_tx</text>
<text text-anchor="start" x="279" y="-333.8" font-family="Helvetica,sans-Serif" font-size="11.00">+ my_adaptor_pre_sig</text>
<text text-anchor="start" x="247.5" y="-322.8" font-family="Helvetica,sans-Serif" font-size="11.00">+ counterparty_pre_sig (optional)</text>
<text text-anchor="start" x="257" y="-311.8" font-family="Helvetica,sans-Serif" font-size="11.00">+ before_xmr_lock_checkpoint</text>
<text text-anchor="start" x="265" y="-300.8" font-family="Helvetica,sans-Serif" font-size="11.00">+ refund_artifact (optional)</text>
</g>
<!-- joint&#45;&gt;wow_locked -->
<g id="edge3" class="edge">
<title>joint&#45;&gt;wow_locked</title>
<path fill="none" stroke="#1565c0" d="M147.11,-433.51C180.13,-416.11 224.85,-392.54 262.96,-372.46"/>
<polygon fill="#1565c0" stroke="#1565c0" points="264.78,-375.46 271.99,-367.7 261.51,-369.26 264.78,-375.46"/>
<text text-anchor="middle" x="287.5" y="-408.4" font-family="Helvetica,sans-Serif" font-size="9.00" fill="#1565c0"> &#160;record_wow_lock(tx)</text>
<text text-anchor="middle" x="287.5" y="-398.4" font-family="Helvetica,sans-Serif" font-size="9.00" fill="#1565c0"> &#160;Create adaptor pre&#45;sig</text>
<text text-anchor="middle" x="287.5" y="-388.4" font-family="Helvetica,sans-Serif" font-size="9.00" fill="#1565c0"> &#160;(Bob only) &#160;</text>
</g>
<!-- xmr_locked -->
<g id="node5" class="node">
<title>xmr_locked</title>
<path fill="#bbdefb" stroke="#2980b9" d="M464.5,-227.6C464.5,-227.6 286.5,-227.6 286.5,-227.6 280.5,-227.6 274.5,-221.6 274.5,-215.6 274.5,-215.6 274.5,-165.6 274.5,-165.6 274.5,-159.6 280.5,-153.6 286.5,-153.6 286.5,-153.6 464.5,-153.6 464.5,-153.6 470.5,-153.6 476.5,-159.6 476.5,-165.6 476.5,-165.6 476.5,-215.6 476.5,-215.6 476.5,-221.6 470.5,-227.6 464.5,-227.6"/>
<text text-anchor="start" x="341.5" y="-215.8" font-family="Helvetica,sans-Serif" font-weight="bold" font-size="11.00">XmrLocked</text>
<text text-anchor="start" x="336" y="-204.8" font-family="Helvetica,sans-Serif" font-size="11.00">+ xmr_lock_tx</text>
<text text-anchor="start" x="314" y="-193.8" font-family="Helvetica,sans-Serif" font-size="11.00">+ my_adaptor_pre_sig</text>
<text text-anchor="start" x="282.5" y="-182.8" font-family="Helvetica,sans-Serif" font-size="11.00">+ counterparty_pre_sig (optional)</text>
<text text-anchor="start" x="292" y="-171.8" font-family="Helvetica,sans-Serif" font-size="11.00">+ before_xmr_lock_checkpoint</text>
<text text-anchor="start" x="300" y="-160.8" font-family="Helvetica,sans-Serif" font-size="11.00">+ refund_artifact (optional)</text>
</g>
<!-- joint&#45;&gt;xmr_locked -->
<g id="edge4" class="edge">
<title>joint&#45;&gt;xmr_locked</title>
<path fill="none" stroke="#2e7d32" stroke-dasharray="5,2" d="M96.74,-433.53C94.28,-398.35 95.12,-334.11 127.5,-293.6 137.18,-281.49 203.89,-254.38 265.68,-231.15"/>
<polygon fill="#2e7d32" stroke="#2e7d32" points="267.01,-234.39 275.15,-227.61 264.56,-227.83 267.01,-234.39"/>
<text text-anchor="middle" x="179" y="-333.4" font-family="Helvetica,sans-Serif" font-size="9.00" fill="#2e7d32"> &#160;record_xmr_lock(tx)</text>
<text text-anchor="middle" x="179" y="-323.4" font-family="Helvetica,sans-Serif" font-size="9.00" fill="#2e7d32"> &#160;(Alice fallback path) &#160;</text>
</g>
<!-- wow_locked&#45;&gt;wow_locked -->
<g id="edge6" class="edge">
<title>wow_locked&#45;&gt;wow_locked</title>
<path fill="none" stroke="#666666" stroke-dasharray="5,2" d="M441.64,-341.56C452.51,-339.45 459.5,-335.79 459.5,-330.6 459.5,-327.19 456.49,-324.44 451.35,-322.36"/>
<polygon fill="#666666" stroke="#666666" points="452.21,-318.97 441.64,-319.64 450.32,-325.71 452.21,-318.97"/>
<text text-anchor="middle" x="536" y="-328.4" font-family="Helvetica,sans-Serif" font-size="9.00" fill="#666666"> &#160;receive_counterparty_pre_sig() &#160;</text>
</g>
<!-- wow_locked&#45;&gt;xmr_locked -->
<g id="edge5" class="edge">
<title>wow_locked&#45;&gt;xmr_locked</title>
<path fill="none" stroke="#2e7d32" d="M349.7,-293.34C354.04,-276.23 359.26,-255.61 363.88,-237.43"/>
<polygon fill="#2e7d32" stroke="#2e7d32" points="367.3,-238.17 366.37,-227.61 360.51,-236.45 367.3,-238.17"/>
<text text-anchor="middle" x="420" y="-268.4" font-family="Helvetica,sans-Serif" font-size="9.00" fill="#2e7d32"> &#160;record_xmr_lock(tx)</text>
<text text-anchor="middle" x="420" y="-258.4" font-family="Helvetica,sans-Serif" font-size="9.00" fill="#2e7d32"> &#160;After verifying WOW lock</text>
<text text-anchor="middle" x="420" y="-248.4" font-family="Helvetica,sans-Serif" font-size="9.00" fill="#2e7d32"> &#160;(Alice primary path) &#160;</text>
</g>
<!-- complete -->
<g id="node6" class="node">
<title>complete</title>
<path fill="#c8e6c9" stroke="#2e7d32" d="M317.61,-39.48C317.61,-39.48 317.61,-48.12 317.61,-48.12 317.61,-52.44 313.61,-58.38 309.61,-60 309.61,-60 280.44,-71.83 280.44,-71.83 276.44,-73.45 268.12,-75.07 263.81,-75.07 263.81,-75.07 217.19,-75.07 217.19,-75.07 212.88,-75.07 204.56,-73.45 200.56,-71.83 200.56,-71.83 171.39,-60 171.39,-60 167.39,-58.38 163.39,-52.44 163.39,-48.12 163.39,-48.12 163.39,-39.48 163.39,-39.48 163.39,-35.16 167.39,-29.22 171.39,-27.6 171.39,-27.6 200.56,-15.77 200.56,-15.77 204.56,-14.15 212.88,-12.53 217.19,-12.53 217.19,-12.53 263.81,-12.53 263.81,-12.53 268.12,-12.53 276.44,-14.15 280.44,-15.77 280.44,-15.77 309.61,-27.6 309.61,-27.6 313.61,-29.22 317.61,-35.16 317.61,-39.48"/>
<path fill="none" stroke="#2e7d32" d="M321.6,-38.59C321.6,-38.59 321.6,-49.01 321.6,-49.01 321.6,-54.22 316.77,-61.4 311.94,-63.36 311.94,-63.36 282.88,-75.14 282.88,-75.14 278.05,-77.1 268.01,-79.06 262.8,-79.06 262.8,-79.06 218.2,-79.06 218.2,-79.06 212.99,-79.06 202.95,-77.1 198.12,-75.14 198.12,-75.14 169.06,-63.36 169.06,-63.36 164.23,-61.4 159.4,-54.22 159.4,-49.01 159.4,-49.01 159.4,-38.59 159.4,-38.59 159.4,-33.37 164.23,-26.2 169.06,-24.24 169.06,-24.24 198.12,-12.46 198.12,-12.46 202.95,-10.5 212.99,-8.54 218.2,-8.54 218.2,-8.54 262.8,-8.54 262.8,-8.54 268.01,-8.54 278.05,-10.5 282.88,-12.46 282.88,-12.46 311.94,-24.24 311.94,-24.24 316.77,-26.2 321.6,-33.37 321.6,-38.59"/>
<text text-anchor="start" x="211" y="-52.5" font-family="Helvetica,sans-Serif" font-weight="bold" font-size="11.00">Complete</text>
<text text-anchor="start" x="198" y="-41.5" font-family="Helvetica,sans-Serif" font-size="11.00">role, addresses</text>
<text text-anchor="start" x="204.5" y="-30.5" font-family="Helvetica,sans-Serif" font-size="11.00">k_b_revealed</text>
</g>
<!-- wow_locked&#45;&gt;complete -->
<g id="edge8" class="edge">
<title>wow_locked&#45;&gt;complete</title>
<path fill="none" stroke="#2e7d32" d="M239.34,-309.39C193.94,-294.74 144.59,-269.78 117.5,-227.6 99.73,-199.93 103.99,-183.58 117.5,-153.6 131.28,-123.01 158.39,-97.55 183.66,-78.97"/>
<polygon fill="#2e7d32" stroke="#2e7d32" points="186.02,-81.58 192.13,-72.93 181.96,-75.88 186.02,-81.58"/>
<text text-anchor="middle" x="191.5" y="-198.4" font-family="Helvetica,sans-Serif" font-size="9.00" fill="#2e7d32"> &#160;complete_with_adaptor_claim()</text>
<text text-anchor="middle" x="191.5" y="-188.4" font-family="Helvetica,sans-Serif" font-size="9.00" fill="#2e7d32"> &#160;Extract counterparty secret</text>
<text text-anchor="middle" x="191.5" y="-178.4" font-family="Helvetica,sans-Serif" font-size="9.00" fill="#2e7d32"> &#160;from completed adaptor sig &#160;</text>
</g>
<!-- refunded -->
<g id="node7" class="node">
<title>refunded</title>
<path fill="#ffcdd2" stroke="#c62828" d="M548.29,-38.33C548.29,-38.33 548.29,-49.27 548.29,-49.27 548.29,-54.74 543.37,-62.59 538.45,-64.98 538.45,-64.98 510.23,-78.65 510.23,-78.65 505.3,-81.03 494.91,-83.42 489.44,-83.42 489.44,-83.42 443.56,-83.42 443.56,-83.42 438.09,-83.42 427.7,-81.03 422.77,-78.65 422.77,-78.65 394.55,-64.98 394.55,-64.98 389.63,-62.59 384.71,-54.74 384.71,-49.27 384.71,-49.27 384.71,-38.33 384.71,-38.33 384.71,-32.86 389.63,-25 394.55,-22.62 394.55,-22.62 422.77,-8.95 422.77,-8.95 427.7,-6.57 438.09,-4.18 443.56,-4.18 443.56,-4.18 489.44,-4.18 489.44,-4.18 494.91,-4.18 505.3,-6.57 510.23,-8.95 510.23,-8.95 538.45,-22.62 538.45,-22.62 543.37,-25 548.29,-32.86 548.29,-38.33"/>
<path fill="none" stroke="#c62828" d="M552.29,-36.9C552.29,-36.9 552.29,-50.7 552.29,-50.7 552.29,-56.7 546.89,-65.32 541.49,-67.93 541.49,-67.93 512.1,-82.17 512.1,-82.17 506.7,-84.78 495.3,-87.4 489.3,-87.4 489.3,-87.4 443.7,-87.4 443.7,-87.4 437.7,-87.4 426.3,-84.78 420.9,-82.17 420.9,-82.17 391.51,-67.93 391.51,-67.93 386.11,-65.32 380.71,-56.7 380.71,-50.7 380.71,-50.7 380.71,-36.9 380.71,-36.9 380.71,-30.9 386.11,-22.28 391.51,-19.67 391.51,-19.67 420.9,-5.43 420.9,-5.43 426.3,-2.82 437.7,-0.2 443.7,-0.2 443.7,-0.2 489.3,-0.2 489.3,-0.2 495.3,-0.2 506.7,-2.82 512.1,-5.43 512.1,-5.43 541.49,-19.67 541.49,-19.67 546.89,-22.28 552.29,-30.9 552.29,-36.9"/>
<text text-anchor="start" x="437.5" y="-58" font-family="Helvetica,sans-Serif" font-weight="bold" font-size="11.00">Refunded</text>
<text text-anchor="start" x="424" y="-47" font-family="Helvetica,sans-Serif" font-size="11.00">role, addresses</text>
<text text-anchor="start" x="424.5" y="-36" font-family="Helvetica,sans-Serif" font-size="11.00">refund_tx_hash</text>
<text text-anchor="start" x="421" y="-25" font-family="Helvetica,sans-Serif" font-size="11.00">refund_evidence</text>
</g>
<!-- wow_locked&#45;&gt;refunded -->
<g id="edge10" class="edge">
<title>wow_locked&#45;&gt;refunded</title>
<path fill="none" stroke="#c62828" stroke-dasharray="5,2" d="M441.73,-326.56C514.42,-318.43 607.81,-294.48 656.5,-227.6 675.86,-201.01 672.99,-182.05 656.5,-153.6 633.82,-114.48 591.19,-88.22 552.05,-71.32"/>
<polygon fill="#c62828" stroke="#c62828" points="553.29,-68.05 542.71,-67.43 550.6,-74.51 553.29,-68.05"/>
<text text-anchor="middle" x="739" y="-193.4" font-family="Helvetica,sans-Serif" font-size="9.00" fill="#c62828"> &#160;complete_with_refund()</text>
<text text-anchor="middle" x="739" y="-183.4" font-family="Helvetica,sans-Serif" font-size="9.00" fill="#c62828"> &#160;After refund height reached &#160;</text>
</g>
<!-- xmr_locked&#45;&gt;xmr_locked -->
<g id="edge7" class="edge">
<title>xmr_locked&#45;&gt;xmr_locked</title>
<path fill="none" stroke="#666666" stroke-dasharray="5,2" d="M476.64,-201.56C487.51,-199.45 494.5,-195.79 494.5,-190.6 494.5,-187.19 491.49,-184.44 486.35,-182.36"/>
<polygon fill="#666666" stroke="#666666" points="487.21,-178.97 476.64,-179.64 485.32,-185.71 487.21,-178.97"/>
<text text-anchor="middle" x="571" y="-188.4" font-family="Helvetica,sans-Serif" font-size="9.00" fill="#666666"> &#160;receive_counterparty_pre_sig() &#160;</text>
</g>
<!-- xmr_locked&#45;&gt;complete -->
<g id="edge9" class="edge">
<title>xmr_locked&#45;&gt;complete</title>
<path fill="none" stroke="#2e7d32" d="M276,-153.49C269.08,-148.28 262.77,-142.34 257.5,-135.6 247.37,-122.64 242.63,-105.5 240.59,-89.6"/>
<polygon fill="#2e7d32" stroke="#2e7d32" points="244.05,-89 239.6,-79.39 237.08,-89.68 244.05,-89"/>
<text text-anchor="middle" x="331.5" y="-128.4" font-family="Helvetica,sans-Serif" font-size="9.00" fill="#2e7d32"> &#160;complete_with_adaptor_claim()</text>
<text text-anchor="middle" x="331.5" y="-118.4" font-family="Helvetica,sans-Serif" font-size="9.00" fill="#2e7d32"> &#160;Extract counterparty secret</text>
<text text-anchor="middle" x="331.5" y="-108.4" font-family="Helvetica,sans-Serif" font-size="9.00" fill="#2e7d32"> &#160;from completed adaptor sig &#160;</text>
</g>
<!-- xmr_locked&#45;&gt;refunded -->
<g id="edge11" class="edge">
<title>xmr_locked&#45;&gt;refunded</title>
<path fill="none" stroke="#c62828" stroke-dasharray="5,2" d="M398.23,-153.43C409.14,-136.07 422.4,-114.96 434.33,-95.99"/>
<polygon fill="#c62828" stroke="#c62828" points="437.34,-97.77 439.7,-87.44 431.42,-94.05 437.34,-97.77"/>
<text text-anchor="middle" x="495" y="-123.4" font-family="Helvetica,sans-Serif" font-size="9.00" fill="#c62828"> &#160;complete_with_refund()</text>
<text text-anchor="middle" x="495" y="-113.4" font-family="Helvetica,sans-Serif" font-size="9.00" fill="#c62828"> &#160;After refund height reached &#160;</text>
</g>
<!-- phases -->
<g id="node8" class="node">
<title>phases</title>
<path fill="white" stroke="transparent" d="M535.5,-750.6C535.5,-750.6 207.5,-750.6 207.5,-750.6 201.5,-750.6 195.5,-744.6 195.5,-738.6 195.5,-738.6 195.5,-650.6 195.5,-650.6 195.5,-644.6 201.5,-638.6 207.5,-638.6 207.5,-638.6 535.5,-638.6 535.5,-638.6 541.5,-638.6 547.5,-644.6 547.5,-650.6 547.5,-650.6 547.5,-738.6 547.5,-738.6 547.5,-744.6 541.5,-750.6 535.5,-750.6"/>
<polygon fill="#fff9c4" stroke="transparent" points="203.5,-720.6 203.5,-746.6 260.5,-746.6 260.5,-720.6 203.5,-720.6"/>
<polygon fill="none" stroke="#2980b9" points="203.5,-720.6 203.5,-746.6 260.5,-746.6 260.5,-720.6 203.5,-720.6"/>
<text text-anchor="start" x="213.5" y="-731.8" font-family="Helvetica,sans-Serif" font-weight="bold" font-size="11.00">Setup</text>
<polygon fill="none" stroke="#2980b9" points="260.5,-720.6 260.5,-746.6 539.5,-746.6 539.5,-720.6 260.5,-720.6"/>
<text text-anchor="start" x="267.5" y="-730.8" font-family="Helvetica,sans-Serif" font-size="11.00">Steps 1&#45;3: Key exchange, DLEQ, joint addresses</text>
<polygon fill="#bbdefb" stroke="transparent" points="203.5,-694.6 203.5,-720.6 260.5,-720.6 260.5,-694.6 203.5,-694.6"/>
<polygon fill="none" stroke="#2980b9" points="203.5,-694.6 203.5,-720.6 260.5,-720.6 260.5,-694.6 203.5,-694.6"/>
<text text-anchor="start" x="217.5" y="-705.8" font-family="Helvetica,sans-Serif" font-weight="bold" font-size="11.00">Lock</text>
<polygon fill="none" stroke="#2980b9" points="260.5,-694.6 260.5,-720.6 539.5,-720.6 539.5,-694.6 260.5,-694.6"/>
<text text-anchor="start" x="279.5" y="-704.8" font-family="Helvetica,sans-Serif" font-size="11.00">Steps 4&#45;6: On&#45;chain locks, pre&#45;sig exchange</text>
<polygon fill="#c8e6c9" stroke="transparent" points="203.5,-668.6 203.5,-694.6 260.5,-694.6 260.5,-668.6 203.5,-668.6"/>
<polygon fill="none" stroke="#2980b9" points="203.5,-668.6 203.5,-694.6 260.5,-694.6 260.5,-668.6 203.5,-668.6"/>
<text text-anchor="start" x="214.5" y="-679.8" font-family="Helvetica,sans-Serif" font-weight="bold" font-size="11.00">Claim</text>
<polygon fill="none" stroke="#2980b9" points="260.5,-668.6 260.5,-694.6 539.5,-694.6 539.5,-668.6 260.5,-668.6"/>
<text text-anchor="start" x="284" y="-678.8" font-family="Helvetica,sans-Serif" font-size="11.00">Steps 7&#45;9: Secret extraction, fund sweeps</text>
<polygon fill="#ffcdd2" stroke="transparent" points="203.5,-642.6 203.5,-668.6 260.5,-668.6 260.5,-642.6 203.5,-642.6"/>
<polygon fill="none" stroke="#2980b9" points="203.5,-642.6 203.5,-668.6 260.5,-668.6 260.5,-642.6 203.5,-642.6"/>
<text text-anchor="start" x="210.5" y="-653.8" font-family="Helvetica,sans-Serif" font-weight="bold" font-size="11.00">Refund</text>
<polygon fill="none" stroke="#2980b9" points="260.5,-642.6 260.5,-668.6 539.5,-668.6 539.5,-642.6 260.5,-642.6"/>
<text text-anchor="start" x="274.5" y="-652.8" font-family="Helvetica,sans-Serif" font-size="11.00">After timelock: sweep back to refund address</text>
</g>
</g>
</svg>
